<?xml version="1.0" ?><svg enable-background="new 0 0 512 512" id="Layer_1" version="1.1" viewBox="0 0 512 512" xml:space="preserve" xmlns="http://www.w3.org/2000/svg" xmlns:xlink="http://www.w3.org/1999/xlink"><g><g><path d="M119.091835,103.5198975c4.5035706,0,8.1711731-3.6673431,8.1711731-8.1811218    c0-4.5035706-3.6676025-8.1714325-8.1711731-8.1714325c-4.5033112,0-8.1711731,3.6678619-8.1711731,8.1714325    C110.9206619,99.8525543,114.5885239,103.5198975,119.091835,103.5198975z"/></g><g><path d="M119.0915833,84.8954086c0.5775528,0,1.044899-0.4673462,1.044899-1.044899v-3.8071442    c0-0.5775528-0.4673462-1.044899-1.044899-1.044899s-1.044899,0.4673462-1.044899,1.044899v3.8071442    C118.0466843,84.4280624,118.5140305,84.8954086,119.0915833,84.8954086z"/></g><g><path d="M120.1364822,110.6423492v-3.8071442c0-0.5775528-0.4673462-1.044899-1.044899-1.044899    s-1.044899,0.4673462-1.044899,1.044899v3.8071442c0,0.5775452,0.4673462,1.044899,1.044899,1.044899    S120.1364822,111.2198944,120.1364822,110.6423492z"/></g><g><path d="M129.5395355,95.3433685c0,0.5775528,0.4673462,1.044899,1.0449066,1.044899h3.8071442    c0.5775452,0,1.0448914-0.4673462,1.0448914-1.044899s-0.4673462-1.044899-1.0448914-1.044899h-3.8071442    C130.0068817,94.2984695,129.5395355,94.7658157,129.5395355,95.3433685z"/></g><g><path d="M103.7926025,96.3882675h3.8071442c0.5775528,0,1.044899-0.4673462,1.044899-1.044899    s-0.4673462-1.044899-1.044899-1.044899h-3.8071442c-0.5775528,0-1.044899,0.4673462-1.044899,1.044899    S103.2150497,96.3882675,103.7926025,96.3882675z"/></g><g><path d="M110.2272949,87.9556122c0.2040863,0.2040787,0.4714279,0.3061218,0.7387772,0.3061218    s0.5346909-0.1020432,0.7387772-0.3061218c0.4081573-0.408165,0.4081573-1.0693893,0-1.4775543l-2.6928558-2.6928558    c-0.408165-0.408165-1.0693893-0.408165-1.4775543,0s-0.408165,1.0693893,0,1.4775543L110.2272949,87.9556122z"/></g><g><path d="M126.4793396,102.7301025c-0.408165,0.408165-0.408165,1.0693893,0,1.4775543l2.6928558,2.6928558    c0.2040863,0.2040787,0.4714203,0.3061218,0.7387695,0.3061218s0.5346985-0.1020432,0.7387848-0.3061218    c0.4081573-0.408165,0.4081573-1.0693893,0-1.4775543l-2.6928635-2.6928558    C127.5487213,102.3219376,126.8874969,102.3219376,126.4793396,102.7301025z"/></g><g><path d="M127.2181091,88.261734c0.2673492,0,0.5346985-0.1020432,0.7387772-0.3061218l2.6928635-2.6928558    c0.4081573-0.408165,0.4081573-1.0693893,0-1.4775543c-0.4081726-0.408165-1.069397-0.408165-1.4775543,0l-2.6928558,2.6928558    c-0.408165,0.408165-0.408165,1.0693893,0,1.4775543C126.6834183,88.1596909,126.9507675,88.261734,127.2181091,88.261734z"/></g><g><path d="M109.0119934,106.9005127l2.6928558-2.6928558c0.4081573-0.408165,0.4081573-1.0693893,0-1.4775543    c-0.408165-0.408165-1.0693893-0.408165-1.4775543,0l-2.6928558,2.6928558c-0.408165,0.408165-0.408165,1.0693893,0,1.4775543    c0.2040787,0.2040787,0.4714279,0.3061218,0.7387772,0.3061218    C108.5405579,107.2066345,108.8079071,107.1045914,109.0119934,106.9005127z"/></g><g><path d="M355.5523071,135.4209137h13.6254883c3.5943909,0,6.5097046-2.9152985,6.5097046-6.5096893    s-2.9153137-6.5204086-6.5097046-6.5204086c-0.8778076,0-1.744873,0.1780624-2.539032,0.5122452    c-1.0135193-1.8494873-2.9362183-3.030098-5.1201477-3.030098c-2.7688599,0-5.078064,1.8908157-5.6946411,4.4928513    c-3.1974487-0.1775513-5.7992249,2.3826523-5.7992249,5.5275574    C350.0247498,132.9443817,352.5012817,135.4209137,355.5523071,135.4209137z"/></g><g><path d="M63.4196434,182.5770416c0,3.0510254,2.4869881,5.5275574,5.5380135,5.5275574h13.6150436    c3.5943909,0,6.5201569-2.9255219,6.5201569-6.5204163c0-3.5836792-2.925766-6.5091858-6.5201569-6.5091858    c-0.8775482,0-1.734436,0.1668396-2.5285645,0.511734c-1.0135269-1.8596954-2.9466858-3.0408173-5.1201553-3.0408173    c-2.7688751,0-5.078064,1.9020386-5.6946411,4.5035706C66.0423431,176.8617401,63.4196434,179.4321442,63.4196434,182.5770416z"/></g><g><path d="M341.4089355,229.7443848h3.9397888l1.5551147,1.5561218c0.1958923,0.1959229,0.4612122,0.3061218,0.7387695,0.3061218    s0.5428467-0.110199,0.7387695-0.3061218l1.3132629-1.3132629h3.8581543c0.5775757,0,1.0449219-0.4673462,1.0449219-1.0448914    c0-0.5775604-0.4673462-1.0449066-1.0449219-1.0449066h-4.290802c-0.2775574,0-0.5428467,0.1102142-0.7387695,0.3061218    l-0.8806152,0.8806152l-1.122467-1.1234741c-0.1958923-0.1959076-0.4612122-0.3061218-0.7387695-0.3061218h-4.3724365    c-0.5775452,0-1.0448914,0.4673462-1.0448914,1.0449066C340.3640442,229.2770386,340.8313904,229.7443848,341.4089355,229.7443848    z"/></g><g><path d="M66.0201569,229.7443848l1.5561218,1.5561218c0.2040787,0.2040863,0.4714279,0.3061218,0.7387695,0.3061218    c0.2673492,0,0.5346985-0.1020355,0.7387772-0.3061218l1.3132629-1.3132629h3.8581696    c0.5775452,0,1.044899-0.4673462,1.044899-1.0448914c0-0.5775604-0.4673538-1.0449066-1.044899-1.0449066h-4.2908173    c-0.2775497,0-0.5428619,0.1102142-0.7387772,0.3061218l-0.8806152,0.8806152l-1.1234665-1.1234741    c-0.1959152-0.1959076-0.4612274-0.3061218-0.7387772-0.3061218h-4.3714256c-0.5775528,0-1.044899,0.4673462-1.044899,1.0449066    c0,0.5775452,0.4673462,1.0448914,1.044899,1.0448914H66.0201569z"/></g><g><path d="M471.4038391,104.0270386h3.9387512l1.5561218,1.5561218c0.2041016,0.2040863,0.4714355,0.3061218,0.7388,0.3061218    c0.267334,0,0.534668-0.1020355,0.7387695-0.3061218l1.3132629-1.3132629h3.8581543    c0.5775452,0,1.0448914-0.4673462,1.0448914-1.044899s-0.4673462-1.044899-1.0448914-1.044899h-4.290802    c-0.2775574,0-0.5428772,0.1102066-0.7387695,0.3061218l-0.8806152,0.8806152l-1.1234741-1.1234665    c-0.1959229-0.1959229-0.4612427-0.3061218-0.7387695-0.3061218h-4.3714294c-0.5775757,0-1.0449219,0.4673462-1.0449219,1.0448914    C470.3589172,103.5596924,470.8262634,104.0270386,471.4038391,104.0270386z"/></g><g><path d="M373.6017761,188.8903046c0,0.5775452,0.4673462,1.0449066,1.0449219,1.0449066h3.9387512l1.5561218,1.5561218    c0.2041016,0.204071,0.4714355,0.3061218,0.7388,0.3061218c0.267334,0,0.534668-0.1020508,0.7387695-0.3061218    l1.3132629-1.3132782h3.8581543c0.5775452,0,1.0448914-0.4673462,1.0448914-1.0448914s-0.4673462-1.0448914-1.0448914-1.0448914    h-4.290802c-0.2775574,0-0.5428772,0.110199-0.7388,0.3061218l-0.8805847,0.8806l-1.1234741-1.1234589    c-0.1959229-0.1959229-0.4612427-0.3061218-0.7387695-0.3061218h-4.3714294    C374.0691223,187.8454132,373.6017761,188.3127594,373.6017761,188.8903046z"/></g><g><path d="M23.5119896,168.5811157c-0.2775517,0-0.5428562,0.1102142-0.7387753,0.3061218l-0.8806114,0.8806152    l-1.1234703-1.1234589c-0.195919-0.1959229-0.4612236-0.3061218-0.7387753-0.3061218h-4.3714285    c-0.5775509,0-1.044898,0.4673462-1.044898,1.0448914s0.4673471,1.0448914,1.044898,1.0448914h3.9387751l1.5561218,1.5561218    c0.2040825,0.2040863,0.4714298,0.3061371,0.7387772,0.3061371c0.2673454,0,0.5346928-0.1020508,0.7387753-0.3061371    l1.3132648-1.3132629h3.8581638c0.5775509,0,1.0448971-0.4673462,1.0448971-1.0448914    c0-0.5775604-0.4673462-1.0449066-1.0448971-1.0449066H23.5119896z"/></g><g><path d="M153.5344391,100.1586761h3.9397888l1.5561218,1.5561218c0.1959229,0.1959152,0.4622498,0.3061218,0.7387848,0.3061218    c0.2775421,0,0.5428619-0.1102066,0.7387695-0.3061218l1.3122559-1.3132706h3.8591766    c0.5775452,0,1.0448914-0.4673462,1.0448914-1.0448914c0-0.5775528-0.4673462-1.044899-1.0448914-1.044899h-4.2918396    c-0.2775421,0-0.5428467,0.110199-0.7387695,0.3061218l-0.8795929,0.8806076L158.6456604,98.375    c-0.1959229-0.1959152-0.4612274-0.3061218-0.7387695-0.3061218h-4.3724518c-0.5775452,0-1.0448914,0.4673462-1.0448914,1.044899    S152.9568939,100.1586761,153.5344391,100.1586761z"/></g><g><path d="M313.9874878,165.9872437c0,0.5775452,0.4673462,1.0449066,1.0449219,1.0449066h3.9387512l1.5561218,1.5561218    c0.2041016,0.204071,0.4714355,0.3061218,0.7388,0.3061218c0.267334,0,0.534668-0.1020508,0.7387695-0.3061218    l1.3132629-1.3132782h3.8581543c0.5775452,0,1.0448914-0.4673462,1.0448914-1.0448914s-0.4673462-1.0448914-1.0448914-1.0448914    h-4.290802c-0.2775574,0-0.5428772,0.110199-0.7387695,0.3061218l-0.8806152,0.8806l-1.1234741-1.1234589    c-0.1959229-0.1959229-0.4612427-0.3061218-0.7387695-0.3061218h-4.3714294    C314.454834,164.9423523,313.9874878,165.4096985,313.9874878,165.9872437z"/></g><g><path d="M104.845665,143.4352112c0,0.5775452,0.4673462,1.0448914,1.044899,1.0448914h3.9397964l1.5561218,1.5561218    c0.2040787,0.2040863,0.4714279,0.3061218,0.7387695,0.3061218c0.2673492,0,0.5346985-0.1020355,0.7387772-0.3061218    l1.3132706-1.3132629h3.8581619c0.5775452,0,1.044899-0.4673462,1.044899-1.0449066    c0-0.5775452-0.4673538-1.0448914-1.044899-1.0448914h-4.2908173c-0.2775497,0-0.5428619,0.110199-0.7387772,0.3061218    l-0.8806152,0.8806152l-1.1234665-1.1234741c-0.1959152-0.1959229-0.4612274-0.3061218-0.7387772-0.3061218h-4.3724442    C105.3130112,142.3903046,104.845665,142.8576508,104.845665,143.4352112z"/></g><g><path d="M302.006897,106.9494934h3.9397888l1.5561218,1.5561218c0.1959229,0.1959152,0.4622498,0.3061218,0.7387695,0.3061218    c0.2775574,0,0.5428467-0.1102066,0.7387695-0.3061218l1.3122559-1.3132706h3.8591919    c0.5775452,0,1.0448914-0.4673462,1.0448914-1.044899c0-0.5775452-0.4673462-1.0448914-1.0448914-1.0448914h-4.2918396    c-0.2775574,0-0.5428772,0.110199-0.7387695,0.3061218l-0.8796082,0.8806076l-1.1234741-1.1234665    c-0.1959229-0.1959229-0.4612122-0.3061218-0.7387695-0.3061218h-4.3724365c-0.5775452,0-1.0449219,0.4673462-1.0449219,1.044899    C300.9619751,106.4821396,301.4293518,106.9494934,302.006897,106.9494934z"/></g><g><path d="M510.9551086,394.4454041h-23.7961731c-0.0081787,0-0.014801-0.0045776-0.0227051-0.0045776h-2.559967v-10.7102051    c0-1.4525452-0.9507446-2.6959229-2.2568665-3.1347046v-19.930603l0.00177-0.0056152v-0.8459167    c0,0-0.00177-0.0117493-0.00177-0.0178528v-2.2821655c0-1.4520264,1.180603-2.6224365,2.6226807-2.6224365    c1.1285706,0,2.1002808,0.7209167,2.4658203,1.7239685c-1.7971802,0.4597168-3.1346741,2.1005249-3.1346741,4.0438843v2.1418457    c-0.4178772,0.1357117-0.7209167,0.5224304-0.7209167,0.9928589c0,0.5744934,0.4701538,1.0448914,1.0448914,1.0448914h0.7209167    h2.2466736v0.7102051c0,0.5750122,0.4596863,1.0448914,1.0448914,1.0448914c0.5747681,0,1.0449219-0.4698792,1.0449219-1.0448914    v-0.7102051h1.9328918h0.7209167c0.5747375,0,1.0448914-0.4703979,1.0448914-1.0448914    c0-0.4704285-0.3027954-0.8571472-0.7209167-0.9928589v-2.1418457c0-1.9229431-1.2956543-3.5423279-3.0614624-4.0229492    c-0.4074097-2.1836853-2.3405762-3.8346863-4.6288452-3.8346863c-2.3397827,0-4.2826538,1.7020264-4.6494751,3.9372253    c-0.4058533-0.1749878-0.8520508-0.2739868-1.3214417-0.2739868c-1.8469238,0-3.3489685,1.5020447-3.3489685,3.348999    c0,0.5775452,0.4673462,1.0448914,1.0448914,1.0448914s1.0448914-0.4673462,1.0448914-1.0448914    c0-0.6938782,0.5653076-1.2591858,1.2591858-1.2591858c0.691864,0,1.2533264,0.5606995,1.2584229,1.2505188v20.790802    c-1.3061218,0.4387817-2.2568665,1.6821594-2.2568665,3.1347046v10.7102051h-2.5497437    c-0.0081787,0-0.014801,0.0045776-0.0227051,0.0045776H451.484436v-3.1479492h-4.8847046v2.6438599    c0,0.1867371-0.0622253,0.3525696-0.1477051,0.5040894h-1.7946167c-0.0854797-0.1515198-0.1474609-0.3173523-0.1474609-0.5040894    v-2.6438599h-14.8551025v2.6438599c0,0.1867371-0.0622559,0.3525696-0.1477051,0.5040894h-1.7946472    c-0.0854492-0.1515198-0.1474304-0.3173523-0.1474304-0.5040894v-2.6438599h-4.8887939v3.1479492H403.953064v-13.0326538    l6.0336609-6.0336609c0.4081726-0.4081726,0.4081726-1.069397,0-1.4775696c-0.4081421-0.4081421-1.0693665-0.4081421-1.4775391,0    l-4.5561218,4.5561218v-4.697937c0-0.5765381-0.4673462-1.0449219-1.0448914-1.0449219s-1.0449219,0.4683838-1.0449219,1.0449219    v7.4285583l-2.5755005-2.5755005c-0.4081726-0.4081726-1.069397-0.4081726-1.4775391,0    c-0.4081726,0.4081421-0.4081726,1.0693665,0,1.4775391l4.0530396,4.0530701v10.3020325H292.021698l-12.0198975-10.6331482    l-55.9385376,10.6331482H107.5589294V381.334198l6.0336761-6.0336914c0.4081573-0.4081726,0.4081573-1.0698853,0-1.4780579    c-0.408165-0.4076538-1.0693893-0.4076538-1.4775543,0l-4.5561218,4.5561218v-4.6979675    c0-0.5765076-0.4673462-1.0448914-1.044899-1.0448914s-1.044899,0.4683838-1.044899,1.0448914v7.4285889l-2.5755081-2.575531    c-0.408165-0.4076538-1.0693893-0.4076538-1.4775543,0c-0.4081573,0.4081726-0.4081573,1.0699158,0,1.4780884l4.0530624,4.0530396    v10.3806152H88.2099457v-3.1479492h-4.8846893v2.6438599c0,0.1867371-0.0622482,0.3525696-0.1477051,0.5040894h-1.7946396    c-0.0854645-0.1515198-0.1474533-0.3173523-0.1474533-0.5040894v-2.6438599H66.3803558v2.6438599    c0,0.1867371-0.0622406,0.3525696-0.1477051,0.5040894h-1.7946396c-0.0854568-0.1515198-0.1474533-0.3173523-0.1474533-0.5040894    v-2.6438599h-4.8887711v3.1479492H35.4913254c-0.0079079,0-0.0145378-0.0045776-0.0227013-0.0045776h-2.5599518v-10.7102051    c0-1.4525452-0.9507637-2.6959229-2.2568874-3.1347046V360.671936l0.0030613-0.0152893v-0.842865    c0-0.6938782,0.5653076-1.2591858,1.2602043-1.2591858c0.6938782,0,1.2591858,0.5653076,1.2591858,1.2591858    c0,0.5775452,0.4673462,1.0448914,1.0448952,1.0448914c0.5775528,0,1.044899-0.4673462,1.044899-1.0448914    c0-1.8469543-1.5020409-3.348999-3.3489799-3.348999c-0.4711723,0-0.9188766,0.1000061-1.3260193,0.2760315l0,0    c-0.3658161-2.2362366-2.309185-3.93927-4.639286-3.93927c-2.2987251,0-4.2214279,1.651001-4.6290817,3.8346863    c-1.7658157,0.4806213-3.0719395,2.1000061-3.0719395,4.0229492v2.1418457    c-0.4178562,0.1357117-0.7209187,0.5224304-0.7209187,0.9928589c0,0.5744934,0.4701538,1.0448914,1.044899,1.0448914h0.7209187    h1.9436226v0.7102051c0,0.5750122,0.4701519,1.0448914,1.0448971,1.0448914s1.044899-0.4698792,1.044899-1.0448914v-0.7102051    h2.9568863c0.5747452,0,1.044899-0.4703979,1.044899-1.0448914c0-0.4704285-0.3028069-0.8571472-0.7209187-0.9928589v-2.1418457    c0-1.9433594-1.3270416-3.5734558-3.1242352-4.0438843c0.3658161-1.0030518,1.3270416-1.7239685,2.4660721-1.7239685    c1.4418373,0,2.6122456,1.1704102,2.6122456,2.6224365v23.0821533c-1.3061237,0.4387817-2.2464294,1.6821594-2.2464294,3.1347046    v10.7102051h-2.5602036c-0.0079079,0-0.0145416,0.0045776-0.0224495,0.0045776H1.0448979    C0.4673469,394.4454041,0,394.9127502,0,395.4902954c0,0.5775757,0.4673469,1.0449219,1.0448979,1.0449219h509.9102173    c0.5775452,0,1.0448914-0.4673462,1.0448914-1.0449219C512,394.9127502,511.5326538,394.4454041,510.9551086,394.4454041z"/></g><g><path d="M308.0793457,424.7525635h-6.1499939c-0.5775757,0-1.0449219,0.4673462-1.0449219,1.0448914    s0.4673462,1.0448914,1.0449219,1.0448914h6.1499939c0.5775452,0,1.0448914-0.4673462,1.0448914-1.0448914    S308.6568909,424.7525635,308.0793457,424.7525635z"/></g><g><path d="M371.0385132,424.7525635h-16.3652954c-0.5775452,0-1.0448914,0.4673462-1.0448914,1.0448914    s0.4673462,1.0448914,1.0448914,1.0448914h16.3652954c0.5775452,0,1.0448914-0.4673462,1.0448914-1.0448914    S371.6160583,424.7525635,371.0385132,424.7525635z"/></g><g><path d="M347.4813843,424.7525635h-29.2908325c-0.5775452,0-1.0448914,0.4673462-1.0448914,1.0448914    s0.4673462,1.0448914,1.0448914,1.0448914h29.2908325c0.5775452,0,1.0448914-0.4673462,1.0448914-1.0448914    S348.0589294,424.7525635,347.4813843,424.7525635z"/></g><g><path d="M183.8058624,424.7525635h-6.1499939c-0.5775452,0-1.0449066,0.4673462-1.0449066,1.0448914    s0.4673615,1.0448914,1.0449066,1.0448914h6.1499939c0.5775604,0,1.0449066-0.4673462,1.0449066-1.0448914    S184.3834229,424.7525635,183.8058624,424.7525635z"/></g><g><path d="M208.1130066,424.7525635h-16.3652954c-0.5775604,0-1.0449066,0.4673462-1.0449066,1.0448914    s0.4673462,1.0448914,1.0449066,1.0448914h16.3652954c0.5775604,0,1.0449066-0.4673462,1.0449066-1.0448914    S208.690567,424.7525635,208.1130066,424.7525635z"/></g><g><path d="M170.9364777,424.7525635H139.847702c-0.5775452,0-1.0448914,0.4673462-1.0448914,1.0448914    s0.4673462,1.0448914,1.0448914,1.0448914h31.0887756c0.5775604,0,1.0449066-0.4673462,1.0449066-1.0448914    S171.5140381,424.7525635,170.9364777,424.7525635z"/></g><g><path d="M235.9112244,425.2698975c0.2510223-0.1112366,0.4255066-0.1918335,0.5224457-0.2408142    c0.0979614-0.0479736,0.2785797-0.1704102,0.5438843-0.3652954c0.723465-0.5571594,1.086731-1.4071655,1.086731-2.5500183    c0-0.9469299-0.3346863-1.796936-1.003067-2.5489807c-0.3489685-0.4040833-0.8816223-0.7244873-1.5989685-0.9612122    s-1.5714264-0.3561401-2.5602112-0.3561401h-5.68367v14.6081848h6.3938751c1.9928589,0,3.3999939-0.453064,4.2214355-1.3581848    c0.6969299-0.7806091,1.0448914-1.6785583,1.0448914-2.6958923c0-0.9194031-0.2683716-1.6887817-0.8040771-2.3092041    C237.5377502,425.8719482,236.8173523,425.4647827,235.9112244,425.2698975z M229.68367,420.5260315h3.1561279    c0.9051056,0,1.5734711,0.1530457,2.0061188,0.4591675c0.4316406,0.3071594,0.6479645,0.8081665,0.6479645,1.5050964    c0,1.2122498-0.8918457,1.8183899-2.6755066,1.8183899H229.68367V420.5260315z M235.6295929,430.1494751    c-0.4806061,0.2857361-1.1744843,0.4285889-2.0795898,0.4285889h-3.866333v-3.9918518h3.5530701    c2.0755005,0,3.113266,0.6479797,3.113266,1.9438782C236.3500061,429.3239746,236.110199,429.8637695,235.6295929,430.1494751z"/></g><g><path d="M246.2142792,418.2474365l-6.4367218,14.6081848h2.6326447l1.4632721-3.3224487h7.3142853l1.4632568,3.3224487h2.6326599    l-6.4367371-14.6081848H246.2142792z M244.8765259,427.2545776l2.6540833-6.0183411l2.6540833,6.0183411H244.8765259z"/></g><g><polygon points="269.5989685,418.2474365 266.4642944,418.2474365 259.7765198,425.3739929 259.7765198,418.2474365     257.3112183,418.2474365 257.3112183,432.8556213 259.7765198,432.8556213 259.7765198,428.7597046 261.9081726,426.4607239     266.7571411,432.8556213 269.6826477,432.8556213 263.726532,424.642334   "/></g><g><path d="M281.7408142,426.3352051c0,1.3377686-0.3346863,2.3969421-1.0030518,3.1765442    c-0.6694031,0.7806091-1.5744934,1.1703796-2.7173462,1.1703796c-1.1418457,0-2.0479736-0.3897705-2.7163391-1.1703796    c-0.6683655-0.7796021-1.0030518-1.8387756-1.0030518-3.1765442v-8.0877686h-2.4663391v8.1928711    c0,2.1030579,0.5785828,3.7234802,1.7347107,4.8581543c1.1561279,1.1357117,2.639801,1.703064,4.4510193,1.703064    s3.2948914-0.5673523,4.4520264-1.703064c1.1561279-1.1346741,1.7336731-2.7550964,1.7336731-4.8581543v-8.1928711h-2.4653015    V426.3352051z"/></g><g><path d="M93.9267883,379.5097046c-0.1147995,0.4076538-0.1668396,0.8255005-0.1668396,1.2642822    c0,2.6331482,2.1418381,4.7857056,4.785202,4.7857056c0.5224533,0,1.0239792-0.0836792,1.5153122-0.2505188    c0.6423416,1.2663269,1.875,2.1459351,3.3188705,2.3234863v-2.7020569l-3.4408112-3.4413147    c-0.591835-0.5918274-0.9183655-1.3790894-0.9183655-2.2168274c0-0.8372498,0.3265305-1.6245117,0.9183655-2.2163391    c0.5928574-0.5923462,1.3795929-0.9178467,2.2163239-0.9178467c0.4275513,0,0.841835,0.0852051,1.2244873,0.2469177v-2.7045898    c0-1.7285767,1.4061279-3.1346741,3.134697-3.1346741c1.6173477,0,2.9520416,1.2305908,3.1173477,2.8045959l1.0061188-1.0056152    c0.5928574-0.5923462,1.3795929-0.9178772,2.2163315-0.9178772c0.836731,0,1.6234665,0.325531,2.2153015,0.9168396    c1.2234726,1.2234802,1.2234726,3.2122498,0.0010223,4.4342041l-5.4214249,5.421936v8.7836609    c0.0571365,0.0020447,0.1137695,0.0097046,0.1709137,0.0097046c2.3408203,0,4.3158188-3.7408142,4.8275528-5.9352112    c1.8392868-0.1357117,3.4586716-1.1704102,4.3469391-2.7688904c3.3433685-0.1673279,5.9974518-2.9362183,5.9974518-6.3219299    c0-2.4551086-1.4209213-4.6494751-3.5836792-5.6841736c0.1566315-0.4699097,0.2403107-0.9612427,0.2403107-1.4627686    c0-1.6928406-0.9301071-3.2285767-2.3826523-4.0331726c-0.0418396-3.0096741-2.5076523-5.4438782-5.5275574-5.4438782    c-0.4280548,0-0.8566284,0.0418396-1.2744827,0.1464539c-1.0346985-1.912262-3.0301056-3.1454163-5.2454147-3.1454163    c-2.1841812,0-4.1377487,1.1704102-5.193367,3.0300903c-4.3464279-0.4596863-8.0872421,3.0091858-8.0872421,7.3040771    c0,0.7102051,0.0938797,1.4102173,0.3030624,2.0898132c-2.1734695,0.8877563-3.6571426,3.0091858-3.6571426,5.4438782    C90.5834198,376.5107117,91.9104614,378.5484619,93.9267883,379.5097046z"/></g><g><path d="M386.9775391,374.2913208c0,2.2979736,1.3270569,4.3357239,3.3436279,5.296936    c-0.1150513,0.4081726-0.1670837,0.825531-0.1670837,1.2642822c0,2.6336975,2.1418457,4.7857361,4.7854614,4.7857361    c0.5224304,0,1.0239868-0.0836792,1.5150452-0.25c0.6426086,1.2663269,1.8752441,2.1459045,3.3188782,2.3234558v-2.7020264    l-3.4408264-3.4418335c-0.5918274-0.5918579-0.9183655-1.3785706-0.9183655-2.2163391s0.3265381-1.6244812,0.9183655-2.2163391    c0.592865-0.5928345,1.3796082-0.9183655,2.2163391-0.9183655c0.4275513,0,0.8418274,0.0857239,1.2244873,0.2469482v-2.704071    c0-1.7285767,1.4061279-3.1347046,3.1347046-3.1347046c1.6173401,0,2.9520264,1.2306213,3.1173401,2.8040771l1.006134-1.0050964    c0.5928345-0.592865,1.3795776-0.9183655,2.2163086-0.9183655s1.6234741,0.3255005,2.2153015,0.9173584    c1.2234802,1.2234497,1.2234802,3.2122192,0.0010376,4.4336548l-5.4214478,5.4224548v6.6938782    c0.0571594,0.0020447,0.1138,0.0091858,0.1711731,0.0091858c2.3405762,0,4.3155823-1.6510315,4.827301-3.8449097    c1.8392944-0.1357117,3.4586792-1.1704102,4.3469543-2.7693787c3.3435974-0.1673584,5.9976807-2.93573,5.9976807-6.3214417    c0-2.4550781-1.4211731-4.6499939-3.5839233-5.6846924c0.1566467-0.4693909,0.2403259-0.9612122,0.2403259-1.4622498    c0-1.6928406-0.9301147-3.2285461-2.3824158-4.0336609c-0.0418396-3.0091858-2.5079041-5.4438782-5.5275574-5.4438782    c-0.4283142,0-0.8568726,0.0418396-1.2747192,0.1469421c-1.0344543-1.9122314-3.0301208-3.1459045-5.2454224-3.1459045    c-2.1839294,0-4.1377563,1.1703796-5.1931152,3.0306091c-4.3466797-0.4602051-8.0874939,3.0091858-8.0874939,7.3040771    c0,0.7102051,0.0938721,1.4101868,0.3030701,2.0897827C388.4612122,369.735199,386.9775391,371.8566284,386.9775391,374.2913208z"/></g><g><rect height="2.1622448" width="28.8081627" x="422.6762695" y="387.0454102"/></g><g><path d="M451.484436,380.3265381c0-3.0403137-2.4663086-5.5066528-5.4964294-5.5066528    c-1.8285828,0-3.4586792,0.8989868-4.4510193,2.2780762c-1.0030518-1.3790894-2.6229553-2.2780762-4.4515381-2.2780762    c-1.8285522,0-3.4586487,0.8989868-4.4510193,2.2780762c-1.0030518-1.3790894-2.6229553-2.2780762-4.4515076-2.2780762    c-3.0403137,0-5.5066528,2.4663391-5.5066528,5.538269v4.5974731h28.8081665V380.3265381z"/></g><g><rect height="2.1622448" width="28.8081627" x="59.4017868" y="387.0454102"/></g><g><path d="M88.2099457,380.3265381c0-3.0403137-2.4663239-5.5066528-5.4964218-5.5066528    c-1.8285751,0-3.4586792,0.8989868-4.4510269,2.2780762c-1.0030594-1.3790894-2.6229553-2.2780762-4.4515305-2.2780762    c-1.8285675,0-3.4586716,0.8989868-4.4510193,2.2780762c-1.0030594-1.3790894-2.6229553-2.2780762-4.4515305-2.2780762    c-3.0403061,0-5.5066299,2.4663391-5.5066299,5.538269v4.5974731h28.8081589V380.3265381z"/></g><g><path d="M419.6114807,150.8658142h14.280365c2.5606995,0,4.6428528-2.0969391,4.6428528-4.6739807    c0-2.5775452-2.0821533-4.6744843-4.6428528-4.6744843c-0.9255066,0-1.8211975,0.2744904-2.5882874,0.793869l-1.2359619,0.8377686    l-0.4247437-1.4377594c-0.5061035-1.7086792-2.0221863-2.8571472-3.7749939-2.8571472    c-2.1390381,0-3.8724365,1.6933746-3.9451599,3.8535767l-0.0461731,1.3887787l-1.3331604-0.3607178    c-0.358429-0.0969391-0.6548462-0.1423492-0.9318848-0.1423492c-1.9923401,0-3.6124878,1.6316376-3.6124878,3.6362305    C415.9989929,149.2346954,417.6191406,150.8658142,419.6114807,150.8658142z"/></g><g><path d="M459.4257507,196.2479553c-5.783905-6.4749908-9.6428528-21.4300995-9.6428528-35.1627502    c0-11.3770447,2.8869934-20.003067,7.7663269-24.3316345c-10.1295776,2.3418427-18.9053345,9.5556183-18.9053345,24.3316345    C438.6438904,175.5096893,447.3466797,191.9382629,459.4257507,196.2479553z"/></g><g><path d="M479.1209106,161.0852051c0-14.6275482-4.8627625-24.2913208-12.4775391-25.1392822v61.2316284    C473.0969238,195.4086761,479.1209106,178.4040833,479.1209106,161.0852051z"/></g><g><path d="M464.4517822,197.1775513v-61.2316284c-7.6148071,0.8479614-12.4775391,10.511734-12.4775391,25.1392822    C451.9742432,178.4040833,457.9981995,195.4086761,464.4517822,197.1775513z"/></g><g><rect height="6.722959" width="10.3130102" x="460.3910828" y="207.5903015"/></g><g><path d="M462.5826416,205.383667h5.9298706v-6.0816193c-0.9862366,0.1550903-1.9755249,0.2433624-2.9650574,0.2433624    c-1.0028076,0-1.9915771-0.0795898-2.9648132-0.2290802V205.383667z"/></g><g><path d="M488.2033081,181.0500031l-0.0461731,1.3877563l-1.3331604-0.3596954    c-0.3583984-0.0974579-0.6548462-0.1428528-0.9321289-0.1428528c-1.9923706,0-3.6122437,1.6316223-3.6122437,3.6362152    c0,2.0051117,1.619873,3.6362305,3.6122437,3.6362305h14.2806091c2.5606995,0,4.6428528-2.0964355,4.6428528-4.6739807    c0-2.5775604-2.0821533-4.6744995-4.6428528-4.6744995c-0.9255066,0-1.821167,0.2750092-2.5882568,0.7938843l-1.2359924,0.8377533    l-0.4247437-1.4382629c-0.5061035-1.7081604-2.0224304-2.8561249-3.7749939-2.8561249    C490.0094299,177.1964264,488.2760315,178.8892822,488.2033081,181.0500031z"/></g><g><path d="M481.3122559,161.0852051c0,13.6897888-3.8344421,28.5969391-9.5885315,35.1040802    c3.4502563-1.2755127,6.7885132-3.5933685,9.7828979-6.8336792c-0.8716736-1.0229492-1.4183655-2.3341827-1.4183655-3.7841797    c0-3.3173523,2.7691345-6.0249939,6.0882874-5.8336639c0.456604-1.9479675,1.8201294-3.5066376,3.6071167-4.2566376    c1.7423706-4.7591858,2.6686401-9.7250061,2.6686401-14.3959198c0-14.7760162-8.7762756-21.9897919-18.9063721-24.3316345    C478.4252625,141.0821381,481.3122559,149.7071381,481.3122559,161.0852051z"/></g><g><path d="M23.7987251,96.1209183c0.4117336-0.4040833,0.4183674-1.0653076,0.0142841-1.4775543    c-0.4040813-0.4122391-1.0653057-0.4193878-1.4775505-0.0142822l-1.5795918,1.5484695l0.4808674,2.4545898L23.7987251,96.1209183z    "/></g><g><path d="M20.617857,95.4739761c-0.0941334-0.4806061-0.5224495-0.8362198-1.0239792-0.8362198h-3.8974495    c-0.5747442,0-1.044898,0.4596939-1.044898,1.044899v6.4795914l6.1043367-5.9846954L20.617857,95.4739761z"/></g><g><path d="M51.5130119,103.2056122v10.7918396h13.7931099c-1.515049-6.1795959-7.0926018-10.7918396-13.7385216-10.7918396    H51.5130119z"/></g><g><path d="M13.7507648,105.5535736c0.2637758,0,0.5280619-0.0999985,0.7316332-0.2989807l0.1691322-0.1663284v0.886734    c0,1.3795929,0.9821434,2.5704117,2.330102,2.841835l16.8436241,3.3959198    c0.1882629,0.0418396,0.3553543,0.1469421,0.47015,0.2928619l6.9487267,8.8295898    c0.5538254,0.6999969,1.3897972,1.1071396,2.2778053,1.1071396h0.8464279v3.6678619h-6.5096931    c-0.6061211,0-1.1076546-0.4913254-1.1076546-1.1076584c0-0.5852051-0.47015-1.0448914-1.0448952-1.0448914    c-0.5852051,0-1.044899,0.4596863-1.044899,1.0448914c0,1.7658157,1.431633,3.1974487,3.1974487,3.1974487h25.7670937    c1.7658119,0,3.1974449-1.431633,3.1974449-3.1974487c0-0.5852051-0.4596939-1.0448914-1.044899-1.0448914    c-0.5747375,0-1.0448914,0.4596863-1.0448914,1.0448914c0,0.616333-0.5015335,1.1076584-1.1076546,1.1076584h-6.509697v-3.6678619    h3.521431c2.8002548,0,5.0885201-2.2877502,5.0885201-5.0887756c0-0.4280624-0.0313797-0.8459167-0.0627518-1.2642822H50.470665    c-0.5747452,0-1.044899-0.469902-1.044899-1.044899v-11.8387756H46.5v-3.3959198    c0-0.5744858-0.4701538-1.044899-1.044899-1.044899h-3.8974495v-7.3974457h24.440052    c0.5747452,0,1.044899-0.469902,1.044899-1.044899s-0.4701538-1.044899-1.044899-1.044899H15.0275507    c-0.5747442,0-1.044898,0.469902-1.044898,1.044899s0.4701538,1.044899,1.044898,1.044899h24.4403076v7.3974457h-3.8974495    c-0.5747452,0-1.044899,0.4704132-1.044899,1.044899v3.3959198h-12.392601l-0.8987236-4.5765305l-6.582654,6.4576492v-2.9244843    l-1.6323977,1.6005096c-0.4117346,0.4030609-0.4183674,1.0653076-0.014286,1.4775467    C13.2094383,105.4484711,13.479847,105.5535736,13.7507648,105.5535736z M46.4581642,122.4423447h8.5681114v3.6678619h-8.5681114    V122.4423447z"/></g><g><path d="M216.0487213,152.4964294c-45.4117279-2.8045959-62.8426056,13.5775452-65.0448914,15.8744965v6.5025482    c5.5020447-4.8775482,23.9918365-17.5816345,65.0448914-15.0668488V152.4964294z"/></g><g><path d="M216.0487213,161.9005127c-45.4117279-2.8025513-62.8426056,13.5775452-65.0448914,15.8744812v6.5035706    c5.5020447-4.8760071,23.9918365-17.5749969,65.0448914-15.067337V161.9005127z"/></g><g><path d="M230.2946472,152.2346954l-12.1561279,18.3943787v5.6719513l12.0903015-17.9229584    c0.0140381-1.0489807,0.026535-2.0760193,0.0372467-3.0816345c-0.0752563-0.2112274-0.0650482-0.4438782,0.0071411-0.6678619    C230.2813721,153.81633,230.2885132,153.0188751,230.2946472,152.2346954z"/></g><g><path d="M151.00383,269.9637756c4.648468-4.1061096,18.5714264-13.7846985,47.5346832-15.2183685v-7.3122406    c-32.4372406,1.6362152-45.654068,14.0709229-47.5346832,16.0255127V269.9637756z"/></g><g><path d="M218.1385193,157.3933716l12.1612244-18.660202c-0.0145416-1.756134-0.0346985-3.4056244-0.0596924-4.9597015    l-12.101532,18.0515289V157.3933716z"/></g><g><path d="M218.1385193,166.8387756l12.1790771-18.4290771c0.0028076-0.7224579,0.0043488-1.4265289,0.0053558-2.1229706    c-0.1339264-0.2826538-0.1499939-0.6127472,0.0017853-0.9112244c0.0002594-0.9770355-0.0015259-1.9209137-0.0040741-2.8469391    l-12.1821442,18.6923523V166.8387756z"/></g><g><path d="M198.5385132,238.0290833c-32.4372406,1.6362305-45.654068,14.0709229-47.5346832,16.0255127v6.5050964    c4.6482086-4.1056213,18.5686188-13.7857056,47.5346832-15.2193909V238.0290833z"/></g><g><path d="M216.0487213,218.3249969c-45.4117279-2.805603-62.8426056,13.5765381-65.0448914,15.8744965v7.5479584    c5.5020447-4.8760223,23.9918365-17.5755157,65.0448914-15.0668335V218.3249969z"/></g><g><path d="M218.1385193,185.69133l11.9242401-17.7673492c0.0413208-1.967865,0.0778046-3.8800964,0.1086731-5.7229614    l-12.0329132,17.8377533V185.69133z"/></g><g><path d="M216.0487213,190.1127625c-45.4117279-2.8102112-62.8426056,13.5765228-65.0448914,15.8744812v6.5035706    c5.5020447-4.8760223,23.9918365-17.5744934,65.0448914-15.0673523V190.1127625z"/></g><g><path d="M216.0487213,208.9209137c-45.4117279-2.8071442-62.8426056,13.5770416-65.0448914,15.8744965v6.5030518    c5.5020447-4.8775482,23.9918365-17.5806122,65.0448914-15.067337V208.9209137z"/></g><g><path d="M216.0487213,180.7086792c-45.4117279-2.8122559-62.8426056,13.5765228-65.0448914,15.8744812v6.503067    c5.5020447-4.878067,23.9918365-17.581131,65.0448914-15.0673523V180.7086792z"/></g><g><path d="M216.0487213,171.3045959c-45.4117279-2.8015289-62.8426056,13.5775452-65.0448914,15.8744812v6.503067    c5.5020447-4.8765259,23.9918365-17.578064,65.0448914-15.0668335V171.3045959z"/></g><g><path d="M218.1385193,204.4994965l11.2594452-16.7760315c0.0382538-0.0923462,0.0813751-0.1831512,0.1306-0.2729492    c0.0660858-1.9989777,0.1275635-3.9489899,0.1841888-5.8510284l-11.574234,17.2459259V204.4994965z"/></g><g><path d="M154.3650513,135.2872467c0.2668304-0.139801,28.5729523-14.7581635,67.9515228-12.0204086l3.9515381-6.7000046    c-47.0525513-0.7653046-64.796936,9.5193939-64.973465,9.6244965c-7.3122559,3.5326538-9.3979645,6.7326508-9.8744965,8.8040771    c-0.2066345,0.8974457-0.1232147,1.6443939,0.0290833,2.2097015    C152.2801056,136.4943848,153.2466888,135.8510132,154.3650513,135.2872467z"/></g><g><path d="M218.2507629,393.4229736l61.0142822-11.5974731v-88.735199c0-0.0137634,0.0076599-0.026001,0.0081787-0.0397949    c0.0004883-0.014801-0.0063782-0.0280457-0.0050964-0.0428467c0.7989502-10.0112305,1.0805969-20.0836792,0.8387451-29.9367371    c-0.4183655-17.0244904-1.167572-33.5673523-2.1022949-49.1846924    c-1.5032959-1.8285828-17.5002441-4.1265411-28.8670807-4.1265411c-10.2400513,0-17.6441345,2.5163269-18.5737152,4.3566437    c-0.0528107,1.1632538-0.1071472,2.3423462-0.1625061,3.5300903c0.0283203,0.1479645,0.0163269,0.2994995-0.0209198,0.4484711    C228.4329071,259.6964417,224.7885132,316.5050964,218.2507629,393.4229736z"/></g><g><path d="M216.5015259,133.1255035l4.6232147-7.8382568c-38.2331543-2.363266-65.5270386,11.7122498-65.8025513,11.8571472    c-2.6846924,1.3530579-4.360199,3.154068-4.993866,5.3622437c-0.6719513,2.336731-0.0699005,4.6724396,0.4951477,6.1306    C155.4696503,143.4984741,170.8262787,132.4168396,216.5015259,133.1255035z"/></g><g><path d="M216.0487213,135.2066345c-48.0510101-0.6826477-61.543869,12.0704041-64.4576569,15.8142853    c-0.0658112,0.1790771-0.1795807,0.3362274-0.3382568,0.4591827c-0.1104584,0.1591797-0.1928558,0.2887726-0.2489777,0.3816376    v4.204071c5.5020447-4.8760223,23.9918365-17.5755005,65.0448914-15.0668335V135.2066345z"/></g><g><polygon points="292.8487244,282.7107239 281.3548584,293.5413208 281.3548584,382.2199097 292.8487244,392.3872375   "/></g><g><path d="M218.1385193,213.9035645l11.0331573-16.4392853c0.0778198-2.0413208,0.1502686-4.0280609,0.2188873-5.9801025    l-11.2520447,16.7653198V213.9035645z"/></g><g><path d="M249.1374969,142.8862305c-9.5530548,0-15.3418274,1.7867279-16.7288208,3.1617279    c-0.0023041,2.0045929-0.0119934,4.1158142-0.0296021,6.3357086c3.158432-2.0107117,9.2303619-3.2280579,16.7584229-3.2280579    c5.3214264,0,18.6025543,0.9306183,24.0165863,3.5678558c-0.1972046-2.0035706-0.3933716-3.9632568-0.5885315-5.8744812    C271.7566223,145.3341827,260.8599548,142.8862305,249.1374969,142.8862305z"/></g><g><path d="M218.1385193,195.0954132l11.6867371-17.413269c0.0556183-2.0163269,0.1056061-3.9750061,0.1507568-5.8785706    L218.1385193,189.44133V195.0954132z"/></g><g><path d="M216.0487213,143.0923462c-45.4117279-2.8056183-62.8426056,13.5765381-65.0448914,15.8744965v6.5030518    c5.5020447-4.8770447,23.9918365-17.5785675,65.0448914-15.0668335V143.0923462z"/></g><g><path d="M231.5941315,188.1127625c-0.0645447,1.9351959-0.1339264,3.9168243-0.2076569,5.9438629    c3.5431213-2.1163177,10.8364868-3.1050873,17.7510223-3.1050873c3.2081604,0,21.1969452,0.7637634,27.6005096,3.7653046    c-0.1446533-2.0020447-0.2915649-3.9831696-0.4405518-5.9433746c-1.2869873-1.7091827-15.3482056-4.0913239-27.1599579-4.0913239    C239.0599518,184.6821442,232.9808655,186.6964264,231.5941315,188.1127625z"/></g><g><path d="M218.1385193,232.711731l10.1775513-15.1637726c0.0959167-2.0556183,0.1887817-4.0846863,0.276535-6.06633    l-10.4540863,15.5760193V232.711731z"/></g><g><path d="M216.0487213,199.5168304c-45.4117279-2.8081512-62.8426056,13.5770416-65.0448914,15.8744965v6.503067    c5.5020447-4.8770447,23.9918365-17.5770416,65.0448914-15.0668488V199.5168304z"/></g><g><path d="M232.4293365,138.9821472c0,0.0306091-0.014801,0.0566254-0.0176086,0.0872345    c-0.0043335,0.0540924-0.0099487,0.1061249-0.0232086,0.1596985c0.0102081,1.3806152,0.0170898,2.8224487,0.0196381,4.3285675    c3.1773071-1.7025452,9.315567-2.7612152,16.7293396-2.7612152c5.324234,0,17.9010162,0.8806152,23.1632538,3.4790802    c-0.2053528-1.979599-0.408905-3.9096985-0.6096802-5.7780609c-0.6704102-1.5260162-11.1395264-3.9704132-22.5535736-3.9704132    C238.1681061,134.5270386,232.4293365,137.4270477,232.4293365,138.9821472z"/></g><g><path d="M232.2793427,130.3535767l-0.0040894,0.0112152c0.0020447,0.0826569,0.0091858,0.1642914-0.008667,0.2459259    c0.035965,1.6494904,0.0663147,3.4270325,0.089798,5.3372345c3.0395355-2.1193848,9.2533112-3.5107117,16.7811127-3.5107117    c5.109436,0,17.1313934,0.8704071,22.2688751,3.4311218c-0.2168274-1.985199-0.4293213-3.8923492-0.6377563-5.7357025    c-0.5522766-1.538269-10.5364685-3.9648056-21.6311188-3.9648056    C238.4028015,126.1678543,232.5426025,128.851532,232.2793427,130.3535767z"/></g><g><path d="M231.9977112,121.4525528c0,0.0341797-0.0160828,0.0627518-0.0193939,0.0959167    c-0.0025482,0.0275497,0.0048523,0.0540848,0.0002594,0.0816345c0.0752563,1.6943893,0.1471863,3.6377563,0.2102051,5.8551025    c3.0589294-2.06633,9.3502502-3.4071426,16.9487152-3.4071426c5.6744995,0,16.5015411,0.8948975,21.3221893,3.3428574    c-0.2280579-1.9836731-0.4492188-3.8724518-0.6625061-5.6637802c-0.3448792-1.3846893-9.0698853-3.9484711-20.6596832-3.9484711    C237.1732178,117.80867,231.9977112,120.2219391,231.9977112,121.4525528z"/></g><g><path d="M232.2466888,163.125c-0.0010223,0.0040741-0.0043488,0.0066376-0.0043488,0.0066376    c-0.0313721,1.7372437-0.0658112,3.5239716-0.1053467,5.3658142c4.3535614-2.3954163,13.6877441-2.6234741,17.0005035-2.6234741    c3.5012817,0,19.5321503,0.7336731,25.580368,3.6321411c-0.1765442-2.0076447-0.3538208-3.9857178-0.5318909-5.9275513    c-0.9849548-1.6198883-13.6915894-3.9739685-25.0484772-3.9739685    C238.207901,159.604599,232.6803589,161.6627502,232.2466888,163.125z"/></g><g><path d="M232.3538208,155.1418304c-0.0175934,1.6627655-0.0397949,3.3826599-0.0665741,5.1627655    c3.4298401-2.0153046,10.4165802-2.7897949,16.8502502-2.7897949c3.393631,0,18.8750153,0.7280579,24.8201447,3.5953979    c-0.1867371-2.0035706-0.3737183-3.9693756-0.5601807-5.8959198c-0.9298706-1.6290741-13.2127686-3.9688721-24.259964-3.9688721    C238.7966766,151.2454071,233.5221863,153.5362244,232.3538208,155.1418304z"/></g><g><path d="M249.8824005,109.4494934c-11.0704041,0-17.4959259,2.2377548-18.4553528,3.6540756    c0.1056061,1.0913315,0.2530518,2.8801041,0.4020386,5.5377579c3.3283081-2.1051025,10.4826508-2.9224472,17.3084106-2.9224472    c5.5987244,0,15.6875153,0.8464279,20.3232269,3.2336731c-0.234436-1.9352036-0.4573975-3.7413254-0.6660767-5.4030609    C268.4946289,111.8193893,261.8130188,109.4494934,249.8824005,109.4494934z"/></g><g><path d="M268.3913269,110.3724518c-0.2058716-1.6025543-0.3920898-3.0250015-0.5579224-4.2724533    c-0.4785461-0.0954056-0.8459167-0.4974442-0.8459167-1.0045929c0-1.3591843-6.2999878-4.0050964-17.8499908-4.0050964    s-17.8510132,2.6459122-17.8510132,4.0050964v1.5673523v3.9137726c3.6012726-2.1923447,11.2994843-3.216835,18.5959167-3.216835    C256.717865,107.3596954,264.493103,108.1979599,268.3913269,110.3724518z"/></g><g><path d="M360.8538208,279.7505188c-45.1448975-9.0632629-62.9846802-0.5438843-65.9153137,1.1244812v112.7867432h65.9153137    V279.7505188z"/></g><g><path d="M151.00383,279.3678589c4.6482086-4.1056213,18.5696411-13.7857056,47.5346832-15.2193909v-7.3106995    c-32.5293274,1.6408081-45.6645355,14.0663147-47.5346832,16.023468V279.3678589z"/></g><g><path d="M267.3392944,102.4454117c-0.2084351-1.5112305-0.3295898-2.3484726-0.3405762-2.4234695    c-0.0071411-0.0500031-0.0112305-0.1000061-0.0112305-0.1510239c0-1.3591843-6.2999878-4.0051041-17.8499908-4.0051041    s-17.8510132,2.6459198-17.8510132,4.0051041v2.2984695c3.5030518-2.1596909,10.8686218-3.1688766,17.8510132-3.1688766    C256.5584106,99.0005112,264.0461731,100.1750031,267.3392944,102.4454117z"/></g><g><path d="M232.0778046,171.1510162c-0.0441284,1.9056091-0.0933685,3.8678589-0.1479645,5.8872528    c3.7086792-1.9096985,10.6290894-2.8050995,17.2076569-2.8050995c3.0492401,0,20.0510101,0.7510071,26.2992401,3.6979523    c-0.1650391-1.9954071-0.3316345-3.9637756-0.4992371-5.9030609c-1.1543274-1.6979523-14.5076599-4.0642853-25.8000031-4.0642853    C238.5900574,167.9637756,233.0107117,169.753067,232.0778046,171.1510162z"/></g><g><path d="M218.1385193,138.6709137l11.7316284-17.4800949c-0.1209106-2.6010208-0.2484589-4.5775528-0.3591766-6.0076523    l-11.3724518,19.2795868V138.6709137z"/></g><g><rect height="8.9438772" width="5.6244898" x="205.5262756" y="254.1025543"/></g><g><path d="M216.0487213,238.2178497l-15.4204102-0.2244873v17.3173523c0.0520477,0.1158142,0.0882721,0.2408142,0.0938873,0.3755035    c0.0068817,0.1642914-0.0321503,0.3163452-0.0938873,0.4571533v17.3551025h15.4204102V238.2178497z M213.2405548,264.0913391    c0,0.5775452-0.4673462,1.0448914-1.0448914,1.0448914h-7.7142792c-0.5775604,0-1.0449066-0.4673462-1.0449066-1.0448914    V251.241333c0-2.703064,2.1989746-4.9020538,4.9020386-4.9020538s4.9020386,2.1989899,4.9020386,4.9020538V264.0913391z"/></g><g><path d="M216.0487213,228.7739868c-45.4117279-2.8091888-62.8426056,13.5765228-65.0448914,15.8744812v6.5071411    c4.6936188-4.145401,18.8283081-13.9826508,48.3744812-15.2663269c0.0405731-0.0015259,0.0767975,0.0158234,0.1165924,0.0193939    c0.0364685-0.0040894,0.0655518-0.0188751,0.1038208-0.0204163l16.4499969,0.2398071V228.7739868z"/></g><g><path d="M208.3385162,248.4290771c-1.5510101,0-2.8122406,1.2612305-2.8122406,2.8122559v0.7714233h5.6244965v-0.7714233    C211.1507721,249.6903076,209.8895416,248.4290771,208.3385162,248.4290771z"/></g><g><path d="M151.00383,288.7719421c4.648468-4.1061401,18.5709076-13.7846985,47.5346832-15.2188721v-7.3117371    c-32.5295868,1.639801-45.6647949,14.0668335-47.5346832,16.0239868V288.7719421z"/></g><g><path d="M218.1385193,223.3076477l10.6278076-15.8346863c0.0872498-2.0459137,0.1711731-4.0622406,0.2497406-6.0270386    l-10.8775482,16.2076416V223.3076477z"/></g><g><path d="M218.1385193,148.0709229l12.0311279-17.9464264c-0.0451508-1.9877625-0.0982208-3.7816391-0.1556091-5.3984756    l-11.8755188,17.6948929V148.0709229z"/></g><g><path d="M218.1385193,237.1882629v37.3551025v95.0698853c5.1456604-62.9959106,8.2163239-111.284668,9.9867401-148.0311127    l-9.9867401,14.8795929V237.1882629z"/></g><g><path d="M268.1609802,209.1596985c5.1051025,0.7556152,8.0224304,1.5382538,9.6946411,2.2591858    c-0.1219482-1.9841919-0.2471924-3.9505157-0.3747559-5.9025574c-1.4589233-1.8234711-17.1668396-4.1158142-28.3433685-4.1158142    c-11.1704102,0-17.7857056,2.7887726-18.1999969,4.2836761c-0.0015259,0.0056-0.0053558,0.0096893-0.0071411,0.0153046    c-0.0255127,0.613266-0.0517883,1.2326508-0.0783234,1.8535614c0.0313873,0.1535797,0.0198975,0.3112335-0.0196381,0.4663391    c-0.0459137,1.0709076-0.0928497,2.1535645-0.1413269,3.2464294c3.4642792-2.1448975,10.5076599-3.595932,18.4464264-3.595932    C254.577301,207.6698914,262.0446472,208.2545929,268.1609802,209.1596985z"/></g><g><path d="M267.9038391,200.8015289c4.9249878,0.7443848,7.7668152,1.5158234,9.4127502,2.2285767    c-0.1324158-1.9770508-0.2668457-3.94133-0.4040833-5.8826599c-1.4025574-1.8193817-16.8002625-4.1061249-27.7750092-4.1061249    c-11.5500031,0-17.8510132,2.6459198-17.8510132,4.0051117c0,0.0239716-0.0119934,0.043869-0.0135193,0.067337    c-0.0053558,0.139801-0.0104675,0.2780609-0.0158234,0.4183807c0.0336761,0.157135,0.0229645,0.3193817-0.0186157,0.4785614    c-0.0596924,1.557663-0.1216888,3.1377563-0.1869965,4.7484741c3.6415863-2.2515259,11.1875-3.4484711,18.085968-3.4484711    C254.547699,199.3107147,261.914032,199.895401,267.9038391,200.8015289z"/></g><g><path d="M151.00383,393.6617432h65.0448914V275.5882568h-16.4586639    c-33.2122498,1.4153137-46.6849518,14.1066284-48.5862274,16.0826721V393.6617432z"/></g><g><path d="M231.8604584,179.5255127c-0.0556183,1.9515228-0.1160736,3.9520416-0.1818848,6.0081635    c3.6395416-2.0025482,10.7267761-2.94133,17.4589233-2.94133c3.131897,0,20.6431122,0.7576599,26.972702,3.7336731    c-0.1550903-1.9994812-0.3119812-3.973465-0.4703979-5.9244843c-1.2221985-1.7035828-14.9421082-4.0785828-26.5023041-4.0785828    C239.5874939,176.3229523,233.6387787,178.1306152,231.8604584,179.5255127z"/></g></g></svg>